{"glyphs":{"0":{"ha":846,"x_min":37,"x_max":808,"o":"m 461 378 q 404 384 433 372 q 359 415 375 395 q 352 496 330 457 q 388 542 363 519 q 443 566 412 564 q 502 528 473 568 q 516 487 515 508 q 513 446 517 467 q 499 405 510 425 q 461 378 488 386 m 728 739 q 626 855 690 810 q 476 916 559 903 q 308 899 394 928 q 177 820 232 872 q 91 700 122 767 q 44 443 37 582 q 111 189 50 304 q 255 37 161 97 q 465 -16 350 -23 q 653 66 574 -3 q 766 228 732 135 q 799 487 808 351 q 728 739 790 624 "},"1":{"ha":503,"x_min":37,"x_max":466,"o":"m 463 477 q 465 698 463 588 q 460 798 466 745 q 429 888 455 850 q 343 930 403 926 q 203 896 274 931 q 84 800 132 861 q 41 665 37 740 q 64 616 43 636 q 113 604 85 597 q 127 610 120 606 q 142 616 135 614 q 158 616 150 618 q 173 598 170 612 q 175 570 176 585 q 175 566 175 568 q 174 472 175 520 q 183 142 170 304 q 222 41 190 86 q 302 -17 254 -4 q 405 9 350 -31 q 453 87 443 41 q 462 180 463 134 q 463 324 462 252 q 463 477 463 401 l 463 477 "},"2":{"ha":775,"x_min":37,"x_max":738,"o":"m 381 933 q 398 933 390 934 q 574 867 498 929 q 664 703 650 804 q 655 591 669 647 q 616 486 642 536 q 538 362 582 420 q 515 328 526 347 q 475 272 497 296 q 504 282 484 279 q 547 286 525 286 q 579 286 568 287 q 681 233 640 279 q 704 72 738 159 q 625 -2 674 12 q 517 -12 576 -15 q 502 -13 509 -12 l 454 -13 q 182 -9 318 -16 q 119 16 144 -7 q 83 75 93 39 q 97 228 66 151 q 183 372 128 304 q 291 487 238 439 q 298 493 294 490 q 351 557 331 520 q 341 628 368 602 q 270 646 315 654 q 214 618 240 637 q 173 595 194 604 q 127 590 152 586 q 52 662 71 606 q 62 768 37 717 q 142 861 90 825 q 258 915 195 897 q 381 933 321 932 "},"3":{"ha":780,"x_min":37,"x_max":743,"o":"m 287 921 q 518 906 414 941 q 614 840 574 885 q 667 736 654 795 q 658 618 679 676 q 589 526 637 561 q 702 428 661 496 q 741 281 743 361 q 697 137 739 203 q 591 28 656 70 q 414 -26 509 -20 q 229 -3 319 -33 q 136 42 181 12 q 64 115 91 71 q 45 216 37 158 q 119 313 58 285 q 180 315 152 325 q 233 289 208 306 q 296 259 263 269 q 360 269 332 252 q 391 313 388 286 q 356 364 395 340 q 324 378 340 372 q 296 391 310 384 q 231 481 242 420 q 243 538 229 511 q 285 575 257 564 q 294 578 290 577 q 316 587 306 581 q 329 617 329 599 q 317 648 329 635 q 280 666 302 663 q 237 661 257 669 q 212 650 224 656 q 148 631 181 633 q 93 653 117 632 q 61 704 69 673 q 86 820 47 767 q 182 892 125 869 q 287 921 229 911 l 287 921 "},"4":{"ha":901,"x_min":37,"x_max":863,"o":"m 859 308 q 822 383 853 352 q 747 422 791 414 q 742 473 744 446 q 730 564 740 517 q 714 604 725 583 q 681 643 703 626 q 612 664 652 665 q 546 640 576 661 q 475 520 492 600 q 471 420 467 471 q 397 422 431 421 q 386 422 393 422 q 368 422 378 422 q 465 559 404 472 q 570 715 526 646 q 607 793 593 751 q 604 880 621 836 q 537 939 583 924 q 448 941 492 954 q 319 835 378 920 q 265 758 293 796 q 136 567 196 665 q 47 355 77 468 q 41 277 37 320 q 84 197 44 234 q 207 152 129 159 q 479 144 341 140 q 493 67 481 106 q 578 -21 519 -4 q 602 -24 590 -24 q 668 -2 638 -24 q 714 52 697 20 q 737 122 730 81 q 739 141 739 132 q 740 155 739 151 q 745 161 741 159 q 762 167 751 164 q 770 169 766 168 q 839 223 814 184 q 859 308 863 262 l 859 308 "},"5":{"ha":781,"x_min":37,"x_max":744,"o":"m 612 574 q 509 609 564 603 q 399 609 454 615 q 382 608 391 608 q 368 614 374 609 q 360 626 362 619 q 360 640 359 633 q 392 680 366 669 q 452 690 418 690 q 515 686 486 690 q 544 684 532 685 q 595 684 569 683 q 644 695 621 686 q 700 748 681 712 q 711 824 718 784 q 649 902 696 879 q 549 924 601 925 l 359 924 q 220 890 270 926 q 144 769 170 854 q 126 713 136 741 q 94 608 108 661 q 80 500 81 555 q 106 437 80 463 q 151 418 126 420 q 202 417 176 415 q 243 417 224 418 q 374 363 317 411 q 389 314 399 337 q 351 278 378 291 q 296 271 323 265 q 233 301 263 281 q 180 328 208 318 q 119 326 152 338 q 45 227 58 297 q 64 124 37 168 q 136 50 91 80 q 229 5 181 20 q 414 -19 319 -25 q 591 37 509 -13 q 697 146 656 79 q 741 294 739 214 q 715 448 744 374 q 619 570 686 522 q 612 574 616 572 "},"6":{"ha":818,"x_min":37,"x_max":781,"o":"m 745 439 q 628 575 706 524 q 458 626 551 626 q 490 660 469 648 q 536 677 512 672 q 560 682 548 680 q 629 705 597 688 q 681 788 682 739 q 640 873 679 838 q 545 906 602 909 q 363 864 452 897 q 205 768 274 831 q 92 609 133 700 q 45 419 52 518 q 90 183 37 294 q 207 46 132 101 q 372 -24 281 -9 q 549 -4 463 -36 q 696 99 636 28 q 767 263 753 171 q 745 439 781 355 l 745 439 m 454 289 q 429 263 446 272 q 393 256 412 254 q 359 271 374 259 q 338 302 345 283 q 357 370 329 340 q 411 389 380 391 q 454 357 441 387 q 454 289 469 322 l 454 289 "},"7":{"ha":635,"x_min":37,"x_max":598,"o":"m 189 907 l 180 907 q 131 905 153 909 q 85 880 109 901 q 38 770 37 836 q 78 683 42 720 q 165 642 114 646 q 191 641 178 641 q 227 640 210 642 q 258 627 244 637 q 275 558 286 602 q 244 477 264 515 q 231 448 236 460 q 174 274 199 362 q 151 171 161 229 q 156 62 142 113 q 225 -12 170 12 q 309 -14 267 -28 q 394 47 363 5 q 443 144 426 90 q 471 250 460 198 q 475 271 473 260 q 517 431 495 351 q 569 644 545 536 q 574 667 572 654 q 592 764 585 711 q 581 858 598 817 q 506 905 564 898 q 307 908 406 913 l 273 907 q 215 907 245 906 q 189 907 202 907 "},"8":{"ha":851,"x_min":37,"x_max":814,"o":"m 408 692 q 423 705 414 702 q 442 706 433 709 q 473 682 460 699 l 473 684 q 476 672 476 678 q 473 659 475 665 q 454 646 465 649 q 417 652 434 639 q 406 671 409 659 q 408 692 404 682 m 511 259 q 479 239 499 244 q 439 237 460 234 q 388 260 409 239 q 378 303 373 279 q 404 340 382 327 q 462 344 429 354 q 512 311 494 334 q 511 259 530 288 m 673 533 q 715 716 728 618 q 611 873 699 816 q 445 920 540 913 q 278 905 349 928 q 162 819 199 878 q 134 689 125 759 q 208 547 144 619 q 60 366 82 487 q 83 164 37 245 q 216 31 129 82 q 407 -34 303 -20 q 608 -18 511 -48 q 759 97 704 15 q 814 272 814 178 q 780 422 814 347 q 673 533 745 498 "},"9":{"ha":823,"x_min":37,"x_max":786,"o":"m 351 608 q 373 637 357 625 q 407 650 388 648 q 443 641 426 650 q 468 614 459 631 q 460 544 484 577 q 411 516 441 519 q 362 540 381 513 q 351 608 342 572 m 90 412 q 226 297 141 335 q 402 275 311 259 q 376 235 395 251 q 334 211 357 220 q 311 202 322 206 q 246 169 275 191 q 209 78 199 126 q 263 1 219 30 q 362 -16 307 -28 q 535 55 452 9 q 675 176 617 102 q 761 351 735 255 q 776 545 786 447 q 693 772 764 670 q 557 888 639 846 q 382 929 475 930 q 210 881 290 927 q 83 756 130 835 q 39 583 37 675 q 90 412 40 490 "},"\u0000":{"ha":102,"x_min":0,"x_max":0,"o":""}," ":{"ha":233,"x_min":0,"x_max":0,"o":""},"!":{"ha":303,"x_min":0,"x_max":0,"o":""},"\"":{"ha":479,"x_min":0,"x_max":0,"o":""},"#":{"ha":803,"x_min":0,"x_max":0,"o":""},"$":{"ha":605,"x_min":0,"x_max":0,"o":""},"%":{"ha":1059,"x_min":0,"x_max":0,"o":""},"&":{"ha":850,"x_min":0,"x_max":0,"o":""},"'":{"ha":238,"x_min":0,"x_max":0,"o":""},"(":{"ha":415,"x_min":0,"x_max":0,"o":""},")":{"ha":415,"x_min":0,"x_max":0,"o":""},"*":{"ha":487,"x_min":0,"x_max":0,"o":""},"+":{"ha":658,"x_min":0,"x_max":0,"o":""},",":{"ha":290,"x_min":0,"x_max":0,"o":""},"-":{"ha":465,"x_min":0,"x_max":0,"o":""},".":{"ha":288,"x_min":37,"x_max":251,"o":"m 219 22 q 149 -11 191 -8 q 74 13 106 -14 q 40 83 43 41 q 64 158 37 125 q 137 194 98 195 q 207 166 176 193 q 244 100 237 139 q 219 22 251 61 l 219 22 "},"/":{"ha":637,"x_min":0,"x_max":0,"o":""},":":{"ha":288,"x_min":0,"x_max":0,"o":""},";":{"ha":290,"x_min":0,"x_max":0,"o":""},"<":{"ha":637,"x_min":0,"x_max":0,"o":""},"=":{"ha":469,"x_min":0,"x_max":0,"o":""},">":{"ha":637,"x_min":0,"x_max":0,"o":""},"?":{"ha":713,"x_min":0,"x_max":0,"o":""},"@":{"ha":1093,"x_min":0,"x_max":0,"o":""},"A":{"ha":920,"x_min":37,"x_max":882,"o":"m 357 130 q 513 129 435 127 l 523 129 q 535 87 529 107 q 540 68 538 78 q 564 15 546 39 q 637 -17 594 -16 q 719 -9 680 -18 q 801 12 762 -4 q 864 76 846 34 q 878 167 882 119 q 864 239 876 203 q 838 309 852 275 l 766 488 q 730 578 747 533 q 709 630 720 604 q 670 727 692 680 q 616 814 649 774 q 454 906 552 890 q 331 884 387 913 q 217 774 259 847 q 170 663 187 722 q 140 544 153 604 q 127 493 134 518 q 90 335 109 414 q 51 176 70 256 q 39 97 40 138 q 61 25 37 57 q 119 -10 84 -1 q 191 -20 154 -18 q 248 -19 222 -22 q 298 3 274 -16 q 330 46 319 20 q 349 98 341 71 q 357 130 353 114 m 486 283 q 391 278 438 281 q 419 391 404 334 q 427 409 421 401 q 443 418 433 418 q 456 408 452 416 q 463 391 461 399 l 471 350 q 486 283 478 315 "},"B":{"ha":843,"x_min":38,"x_max":806,"o":"m 784 315 q 668 489 759 425 q 738 611 721 539 q 732 753 755 684 q 658 857 707 821 q 547 906 609 893 q 422 914 485 918 q 376 912 399 913 q 284 906 330 911 q 196 882 239 901 q 107 803 137 855 q 66 686 77 751 q 44 364 38 526 q 45 346 44 355 q 56 204 45 276 q 107 77 67 132 q 217 2 152 23 q 349 -23 283 -19 q 457 -27 403 -28 q 565 -11 512 -25 q 665 33 618 3 q 745 109 712 62 q 784 315 806 203 l 784 315 m 376 695 q 439 708 407 721 q 483 665 471 696 q 465 604 495 634 q 419 588 446 587 q 374 606 393 589 q 356 651 356 625 q 376 695 357 677 l 376 695 m 476 222 q 446 213 463 212 q 414 220 429 214 q 364 270 376 235 q 369 306 360 289 q 395 332 378 323 q 465 333 436 351 q 494 273 494 315 q 490 245 493 259 q 476 222 487 232 l 476 222 "},"C":{"ha":829,"x_min":37,"x_max":792,"o":"m 790 167 q 789 216 792 191 q 751 302 781 264 q 675 345 722 340 q 599 330 636 346 q 569 321 584 325 q 477 334 517 308 q 423 413 437 361 q 425 489 414 450 q 463 552 435 528 q 534 570 491 576 q 585 550 560 564 q 629 531 606 538 q 743 568 695 519 q 788 684 787 618 q 730 841 789 774 q 587 916 672 902 q 409 906 501 929 q 241 835 317 883 q 123 726 164 787 q 39 416 37 585 q 140 115 41 248 q 300 10 197 46 q 492 -28 404 -26 q 686 13 594 -31 q 790 167 784 56 l 790 167 "},"D":{"ha":909,"x_min":37,"x_max":871,"o":"m 437 370 q 380 357 405 345 q 351 402 356 369 q 350 463 349 418 q 361 547 351 508 q 398 583 372 585 q 453 538 432 572 q 478 475 474 503 q 437 370 486 414 l 437 370 m 566 885 q 256 916 417 946 q 108 806 155 897 q 67 657 75 735 q 55 544 59 601 q 81 156 37 346 q 121 67 92 107 q 180 23 145 39 q 253 -1 215 7 q 454 -24 351 -26 q 649 24 557 -22 q 798 176 743 78 q 864 377 852 273 q 867 412 866 395 q 791 694 871 567 q 566 885 711 821 "},"E":{"ha":789,"x_min":37,"x_max":751,"o":"m 747 195 q 707 300 743 258 q 614 337 669 338 q 553 323 583 334 q 500 311 528 314 q 464 315 481 308 q 451 328 456 319 q 446 345 446 336 q 456 362 448 355 q 475 373 465 370 q 533 378 503 381 q 582 380 558 376 q 650 430 627 391 q 656 537 676 481 q 579 608 637 593 q 536 610 558 611 q 475 618 505 607 q 460 629 467 622 q 454 646 454 636 q 462 660 456 654 q 477 667 469 666 q 518 665 496 670 q 535 662 527 663 q 540 661 538 661 q 587 657 563 658 q 671 698 640 655 q 693 773 691 732 q 694 820 696 797 q 681 863 692 843 q 629 903 662 891 q 348 907 490 953 q 123 741 205 861 q 39 437 37 603 q 140 141 41 272 q 354 -7 229 31 q 615 -17 478 -44 q 690 13 659 -9 q 736 78 722 35 q 747 195 751 131 l 747 195 "},"F":{"ha":720,"x_min":37,"x_max":683,"o":"m 597 443 q 583 538 612 494 q 496 591 550 581 q 466 593 486 593 q 424 595 445 593 q 394 606 404 597 q 397 633 384 614 q 436 650 412 650 q 483 644 461 650 q 493 643 488 644 q 560 647 525 638 q 623 673 595 656 q 670 734 656 696 q 673 811 683 772 q 565 907 648 894 q 545 909 555 908 q 406 922 477 919 q 268 911 335 926 q 145 851 201 897 q 67 731 88 800 q 44 588 46 662 q 45 283 37 435 l 45 274 q 57 154 47 213 q 104 45 67 94 q 186 -13 137 5 q 286 -16 236 -31 q 378 92 365 9 q 372 188 383 141 q 365 242 367 215 q 369 296 362 269 q 422 364 380 344 q 477 370 448 373 q 515 372 496 370 q 594 436 570 384 l 597 443 "},"G":{"ha":941,"x_min":37,"x_max":903,"o":"m 303 839 q 155 716 217 791 q 66 545 93 642 q 66 321 37 433 q 174 123 94 209 q 368 2 255 39 q 597 -16 480 -35 q 724 28 665 -4 q 825 113 784 60 q 888 273 877 184 q 869 452 903 366 q 741 576 831 541 q 636 581 685 596 q 551 520 587 565 q 526 471 533 498 q 530 418 519 444 q 541 400 535 409 q 552 378 547 389 q 553 355 556 367 q 538 336 549 342 q 512 329 526 329 q 464 348 486 331 q 398 427 416 380 q 403 528 380 473 q 460 599 422 570 q 544 642 498 628 q 646 650 596 654 q 718 651 681 648 q 771 686 751 657 q 796 747 792 714 q 735 882 800 828 q 617 917 685 917 q 490 906 549 918 q 303 839 390 888 l 303 839 "},"H":{"ha":876,"x_min":37,"x_max":839,"o":"m 661 916 q 579 880 616 914 q 528 793 543 845 q 500 613 503 704 q 498 589 500 602 q 484 535 498 560 q 461 516 475 522 q 432 513 447 509 q 400 542 409 519 q 390 593 390 566 q 393 648 390 620 q 394 720 397 686 q 354 853 384 806 q 257 916 325 900 q 119 884 180 933 q 50 770 62 833 q 41 604 37 707 q 41 568 41 586 q 60 243 41 405 l 61 234 q 86 95 68 149 q 164 3 104 42 q 251 -22 205 -23 q 336 11 297 -20 q 395 113 381 54 q 401 186 403 149 q 410 239 399 214 q 452 272 422 267 q 485 264 470 273 q 507 239 499 254 q 522 173 521 208 q 528 132 523 152 q 563 43 537 86 q 639 -16 589 0 q 754 7 713 -35 q 813 127 795 49 q 835 295 831 205 q 838 460 839 385 q 826 703 839 601 q 774 860 812 804 q 661 916 735 915 "},"I":{"ha":431,"x_min":37,"x_max":393,"o":"m 393 480 q 378 726 391 606 q 340 862 368 814 q 247 926 311 909 q 115 894 174 944 q 49 777 60 842 q 40 608 37 713 q 41 570 41 590 q 58 239 41 404 q 60 230 59 235 q 84 89 66 143 q 158 -5 101 34 q 242 -31 198 -33 q 322 3 286 -30 q 375 91 361 39 q 389 197 389 142 q 391 242 390 220 q 393 480 393 360 l 393 480 "},"J":{"ha":745,"x_min":37,"x_max":708,"o":"m 402 485 q 402 390 406 439 q 366 307 398 340 q 309 291 332 279 q 264 329 285 304 q 245 349 255 340 q 190 371 223 370 q 130 361 157 372 q 54 280 71 335 q 54 167 37 226 q 112 69 71 109 q 248 -4 170 18 q 401 -18 326 -25 q 554 43 492 -8 q 652 170 616 94 q 696 331 687 245 q 696 599 708 465 q 695 632 696 614 q 683 767 694 694 q 636 890 672 841 q 522 926 600 939 q 437 894 474 917 q 385 827 401 871 q 374 750 372 789 q 385 674 377 712 q 394 611 391 643 q 399 532 397 572 q 402 485 400 509 l 402 485 "},"K":{"ha":911,"x_min":37,"x_max":873,"o":"m 231 923 q 140 896 177 923 q 81 822 104 869 q 49 714 59 775 q 39 586 39 653 q 39 490 39 538 q 39 317 37 404 q 52 146 41 230 q 69 79 57 111 q 104 20 81 46 q 214 -30 151 -27 q 332 3 278 -33 q 368 62 361 26 q 370 131 376 97 q 362 170 366 151 q 352 230 355 199 q 355 258 350 244 q 365 269 359 264 q 378 272 371 273 q 391 265 386 271 q 399 254 395 260 q 434 197 416 227 q 502 92 465 143 q 591 8 539 41 q 680 -25 631 -17 q 773 -17 729 -33 q 843 44 818 -2 q 836 170 873 109 q 798 222 820 195 q 753 271 776 250 q 691 334 719 299 q 653 414 663 370 q 666 507 646 462 q 719 587 686 552 q 753 619 735 604 q 812 684 787 648 q 827 810 848 744 q 736 898 804 876 q 645 895 690 910 q 565 846 600 879 q 500 762 528 809 q 449 667 472 715 q 437 642 443 654 q 414 604 425 620 q 393 587 403 588 q 378 591 385 587 q 370 604 372 596 q 368 633 365 618 q 371 661 369 647 q 372 669 371 665 q 380 763 379 713 q 359 853 381 813 q 254 922 322 910 q 231 923 242 923 l 231 923 "},"L":{"ha":720,"x_min":37,"x_max":682,"o":"m 346 496 q 355 386 340 443 q 422 302 370 328 q 468 292 445 292 q 515 296 491 292 q 589 297 552 303 q 656 246 633 286 q 663 120 682 193 q 597 16 644 47 q 433 -20 526 -21 q 275 -9 340 -18 q 151 37 211 -1 q 84 125 106 69 q 56 245 63 181 q 46 363 48 309 q 45 387 45 376 q 46 615 37 494 q 100 833 54 736 q 202 922 141 905 q 327 880 263 939 q 373 783 368 836 q 371 675 378 730 q 369 644 370 660 q 357 570 365 603 q 346 496 350 538 "},"M":{"ha":1041,"x_min":37,"x_max":1004,"o":"m 548 5 q 583 10 566 4 q 620 40 605 20 q 666 138 652 85 l 666 140 q 673 159 668 151 q 682 167 677 164 q 693 170 687 170 q 705 161 701 168 q 712 148 709 155 q 725 119 719 134 q 730 106 728 113 q 738 85 735 96 q 743 71 741 78 q 779 18 754 39 q 905 -16 834 -24 q 973 16 945 -12 q 1001 100 1004 52 q 985 191 998 149 q 906 474 948 329 q 827 758 865 621 q 808 814 819 789 q 772 862 797 840 q 670 909 729 903 q 621 905 648 911 q 576 885 595 899 q 529 817 549 859 q 513 788 521 801 q 509 783 511 785 q 505 780 507 781 q 492 785 497 778 q 484 800 486 792 q 403 883 463 859 q 287 869 342 903 q 223 793 246 841 q 186 699 200 745 q 135 530 159 614 q 110 444 123 486 q 67 291 87 369 q 41 134 48 212 q 46 61 37 98 q 82 -3 54 24 q 172 -30 120 -33 q 266 -7 223 -28 q 316 36 300 9 q 342 95 332 63 q 355 130 347 112 q 370 156 360 144 q 394 167 380 166 q 416 155 407 168 q 425 130 422 143 l 426 123 q 468 44 435 79 q 548 5 500 9 "},"N":{"ha":922,"x_min":37,"x_max":885,"o":"m 75 679 q 110 785 87 734 q 173 865 132 836 q 279 888 214 895 q 390 836 343 878 q 470 738 437 793 q 524 628 503 682 q 524 627 524 627 q 538 600 529 612 q 552 592 545 595 q 567 592 559 589 q 582 613 581 597 q 579 643 583 628 q 569 773 563 701 q 613 892 574 845 q 738 925 652 939 q 827 854 799 909 q 863 729 855 799 q 872 601 871 659 q 873 569 873 583 q 818 109 885 334 q 775 24 806 60 q 721 -11 749 -1 q 666 -18 694 -20 q 534 27 586 -15 q 452 125 483 68 q 405 228 422 181 q 377 283 389 269 q 383 138 389 211 q 324 7 376 62 q 225 -33 277 -36 q 130 6 172 -29 q 71 97 87 42 q 37 359 37 226 q 64 622 37 492 q 75 679 68 649 "},"O":{"ha":987,"x_min":37,"x_max":949,"o":"m 906 614 q 803 786 872 715 q 640 890 733 857 q 431 920 542 924 q 231 857 321 916 q 103 712 152 802 q 45 519 54 623 q 74 304 37 408 q 309 25 144 114 q 649 8 476 -58 q 781 91 721 37 q 915 330 880 186 q 906 614 949 474 l 906 614 m 575 401 q 566 389 571 394 q 565 387 565 388 q 564 386 564 387 q 497 351 538 355 q 422 366 456 347 q 373 434 382 391 q 387 518 363 478 q 456 569 412 557 q 553 544 511 580 q 589 476 583 517 q 575 401 596 436 l 575 401 "},"P":{"ha":847,"x_min":39,"x_max":798,"o":"m 771 732 q 619 887 719 846 q 406 918 519 928 q 378 916 391 917 q 229 898 301 913 q 104 829 157 882 q 55 712 65 782 q 44 578 45 642 q 44 563 44 570 q 44 349 39 456 q 75 136 48 241 q 113 43 85 85 q 256 -18 170 -26 q 368 80 341 -1 q 374 150 375 114 q 378 205 374 178 q 430 278 389 261 q 521 297 470 296 q 662 332 600 300 q 761 433 724 363 q 794 580 791 494 q 771 732 798 665 l 771 732 m 465 527 q 424 511 449 515 q 382 521 399 507 q 369 544 372 530 q 366 570 366 553 q 368 604 366 587 q 374 628 370 621 q 420 654 392 653 q 469 630 449 656 q 479 597 477 618 q 478 556 481 576 q 465 527 474 536 l 465 527 "},"Q":{"ha":979,"x_min":37,"x_max":942,"o":"m 846 170 q 925 385 908 267 q 906 616 942 503 q 803 788 872 717 q 640 892 733 859 q 431 922 542 926 q 231 859 321 918 q 103 714 152 804 q 45 521 54 625 q 74 306 37 410 q 309 26 144 115 q 646 8 474 -54 q 763 -66 694 -51 q 839 -54 804 -73 q 886 4 873 -35 q 885 67 892 35 q 863 130 877 99 q 846 170 854 150 l 846 170 m 394 529 q 483 580 429 572 q 594 538 549 586 q 629 442 630 497 q 547 444 588 455 q 477 395 494 429 q 469 319 461 362 q 415 343 439 326 q 366 432 372 378 q 394 529 359 485 l 394 529 "},"R":{"ha":880,"x_min":37,"x_max":843,"o":"m 796 244 q 722 323 764 289 q 707 335 715 329 q 678 360 690 346 q 671 394 665 374 q 684 416 675 407 q 704 432 693 425 q 721 445 713 438 q 770 508 751 473 q 812 622 804 566 q 796 741 820 677 q 652 895 749 854 q 440 926 554 935 q 282 897 358 921 q 146 814 206 873 q 56 643 75 739 q 42 448 37 548 q 54 315 45 381 q 58 275 56 296 q 62 231 61 253 q 70 163 64 197 q 89 98 75 130 q 164 11 113 42 q 276 -14 215 -20 q 354 40 328 -5 q 383 134 380 85 q 380 180 385 157 q 377 210 378 195 q 371 274 376 242 q 369 297 368 286 q 378 318 370 309 q 417 330 393 334 q 456 314 440 327 q 486 272 475 296 q 506 223 498 248 q 550 111 524 166 q 622 14 576 55 q 741 -20 675 -31 q 806 22 781 -9 q 838 94 832 54 q 831 173 843 134 q 796 244 820 211 l 796 244 m 376 637 q 413 663 389 663 q 456 644 437 663 q 471 594 477 621 q 437 553 465 566 q 405 549 421 548 q 390 550 397 548 q 378 557 383 551 q 372 568 374 562 q 370 582 371 575 q 376 637 367 611 l 376 637 "},"S":{"ha":700,"x_min":37,"x_max":663,"o":"m 420 556 q 413 558 416 557 q 367 577 387 562 q 353 602 356 587 q 361 627 351 616 q 378 633 368 633 q 397 631 388 634 q 421 618 410 626 q 431 612 426 614 q 545 604 488 582 q 636 676 602 627 q 653 754 661 714 q 616 827 645 794 q 552 880 588 861 q 387 918 477 918 q 221 882 298 918 q 106 790 153 850 q 47 657 60 731 q 69 504 37 582 q 161 379 100 426 q 293 309 222 336 q 326 290 311 302 q 335 274 332 283 q 335 256 338 264 q 307 237 326 239 q 273 241 290 237 q 229 254 252 247 q 176 270 203 263 q 125 275 150 276 q 66 240 87 271 q 42 172 45 210 q 52 102 39 133 q 116 33 75 60 q 205 -7 157 6 q 349 -27 275 -29 q 490 3 422 -25 q 624 128 586 48 q 649 297 663 208 q 576 457 635 386 q 420 556 517 528 l 420 556 "},"T":{"ha":862,"x_min":37,"x_max":825,"o":"m 771 860 q 693 897 741 887 q 431 916 563 920 q 374 917 403 916 q 180 908 275 920 q 77 855 117 898 q 38 750 37 812 q 82 656 42 689 q 180 614 122 624 q 236 591 214 609 q 260 538 257 574 q 262 332 269 435 q 260 298 261 315 q 258 160 252 229 q 281 77 263 117 q 334 9 300 37 q 431 -19 378 -22 q 524 17 484 -17 q 577 102 563 53 q 591 205 591 152 q 593 275 592 240 q 595 414 595 344 q 602 540 595 498 q 624 595 609 582 q 661 609 638 609 q 725 613 694 609 q 782 642 756 618 q 821 753 825 688 q 771 860 817 818 "},"U":{"ha":781,"x_min":37,"x_max":744,"o":"m 695 850 q 607 919 663 904 q 494 899 551 934 q 452 835 456 872 q 453 757 447 798 q 455 728 454 743 q 456 724 456 726 q 462 558 463 643 q 439 396 461 473 q 421 362 433 377 q 392 345 410 347 q 371 352 380 345 q 356 369 361 359 q 345 413 346 390 q 359 572 342 483 q 377 746 376 661 q 326 890 377 831 q 260 919 298 915 q 147 895 193 926 q 86 799 101 863 q 51 587 64 703 q 47 355 37 471 q 103 149 56 240 q 215 31 144 73 q 373 -18 285 -12 q 490 -13 429 -23 q 597 33 552 -2 q 671 121 642 71 q 715 228 701 172 q 743 468 741 332 q 730 710 744 604 q 729 717 729 713 q 705 830 724 775 q 695 850 701 841 l 695 850 "},"V":{"ha":814,"x_min":37,"x_max":777,"o":"m 667 928 q 547 902 597 935 q 466 814 496 870 q 429 694 435 759 q 422 666 427 680 q 403 650 416 652 q 380 662 389 648 q 368 690 371 675 q 322 825 349 760 q 284 886 310 861 q 195 915 247 916 q 101 887 144 913 q 45 814 58 861 q 52 708 37 761 q 113 502 77 603 q 161 349 140 426 q 165 333 163 341 q 206 199 182 271 q 271 67 231 127 q 373 -18 311 7 q 491 -15 441 -41 q 573 63 540 11 q 629 169 607 115 q 726 490 694 325 q 743 569 734 529 q 767 693 757 631 q 773 817 777 755 q 669 927 765 914 q 667 928 668 927 l 667 928 "},"W":{"ha":1041,"x_min":37,"x_max":1004,"o":"m 548 873 q 468 834 500 869 q 426 756 435 800 l 425 749 q 416 724 422 736 q 394 712 407 711 q 370 723 380 713 q 355 749 360 735 q 342 784 347 767 q 316 843 332 816 q 266 886 300 870 q 172 909 223 907 q 82 882 120 911 q 46 819 54 856 q 41 745 37 781 q 67 588 48 667 q 110 435 87 510 q 135 349 123 393 q 186 180 159 264 q 223 86 200 134 q 287 10 246 39 q 403 -4 342 -23 q 484 79 463 20 q 492 94 486 87 q 505 99 497 101 q 509 96 507 98 q 513 91 511 94 q 529 62 521 78 q 576 -6 549 20 q 621 -26 595 -20 q 670 -30 648 -32 q 772 17 729 -24 q 808 65 797 39 q 827 121 819 90 q 906 405 865 258 q 985 688 948 550 q 1001 779 998 730 q 973 863 1004 827 q 905 895 945 890 q 779 861 834 903 q 743 809 754 840 q 738 794 741 801 q 730 772 735 783 q 725 760 728 766 q 712 731 719 745 q 705 718 709 724 q 693 709 701 711 q 682 712 687 709 q 673 720 677 715 q 666 739 668 728 l 666 741 q 620 839 652 794 q 583 869 605 859 q 548 873 566 875 "},"X":{"ha":941,"x_min":35,"x_max":903,"o":"m 831 711 q 882 780 861 743 q 893 854 903 816 q 838 914 878 898 q 749 924 798 930 q 656 901 701 919 q 543 814 585 868 q 471 702 500 761 q 399 806 446 751 q 311 887 353 861 q 212 920 269 913 q 198 920 205 920 q 107 900 149 921 q 52 842 65 879 q 72 738 35 785 q 190 612 109 690 q 283 481 272 533 q 181 289 294 429 q 155 259 169 275 q 71 138 102 203 q 81 38 48 78 q 189 -18 115 -3 q 305 -8 255 -30 q 392 56 355 14 q 460 142 430 97 q 499 92 484 111 q 507 84 504 87 q 554 31 528 55 q 617 -9 580 7 q 777 -12 696 -41 q 869 91 854 22 q 849 195 878 147 q 779 287 821 243 q 677 430 696 389 q 723 567 658 471 q 831 711 787 663 "},"Y":{"ha":821,"x_min":37,"x_max":783,"o":"m 731 861 q 660 906 703 893 q 572 911 616 920 q 473 805 482 890 q 479 715 472 760 q 481 699 480 707 q 484 630 484 665 l 484 603 q 478 539 487 572 q 429 503 469 507 q 383 524 395 503 q 371 573 370 545 q 376 621 371 601 q 383 712 383 661 q 368 812 383 764 q 313 889 353 860 q 245 911 286 908 q 170 908 210 914 q 106 876 130 902 q 51 741 59 816 q 62 527 37 633 q 87 448 71 486 q 135 377 104 410 q 253 305 184 327 q 395 285 323 283 q 413 286 404 285 q 447 286 429 286 q 464 281 456 286 q 471 263 473 274 q 461 245 469 253 q 415 218 444 224 q 357 214 387 211 q 282 235 319 221 q 224 252 254 245 q 165 256 195 259 q 83 203 111 245 q 64 113 56 161 q 103 52 71 77 q 176 11 135 27 q 251 -14 217 -5 q 458 -33 349 -38 q 652 33 568 -27 q 751 163 720 86 q 781 322 782 241 q 781 431 781 376 q 778 661 783 546 q 777 680 777 670 q 766 775 774 726 q 731 861 758 823 "},"Z":{"ha":805,"x_min":37,"x_max":768,"o":"m 185 913 q 178 913 182 913 q 75 865 113 909 q 53 753 37 822 q 125 665 72 693 q 239 648 179 637 q 252 651 245 649 q 283 656 267 655 q 320 643 307 656 q 328 604 333 629 q 296 544 318 573 q 284 527 290 535 q 204 412 245 469 q 155 344 179 378 q 144 328 150 336 q 92 245 115 288 q 68 150 69 202 q 85 70 67 108 q 138 8 103 31 q 209 -16 171 -12 q 284 -18 246 -20 q 318 -18 301 -18 q 340 -18 329 -18 q 515 -20 427 -20 q 522 -20 518 -20 q 608 -17 564 -20 q 691 4 651 -13 q 738 44 722 18 q 759 102 753 70 q 758 187 768 145 q 712 256 747 231 q 643 274 681 275 q 568 267 605 273 q 531 262 549 264 q 503 262 517 260 q 478 276 487 264 q 477 303 469 288 q 494 322 484 314 q 642 479 581 389 q 698 611 682 540 q 696 751 714 682 q 626 863 677 819 q 507 909 576 907 q 341 910 425 909 q 285 911 313 911 q 185 913 235 914 l 185 913 "},"[":{"ha":363,"x_min":0,"x_max":0,"o":""},"\\":{"ha":637,"x_min":0,"x_max":0,"o":""},"]":{"ha":363,"x_min":0,"x_max":0,"o":""},"^":{"ha":503,"x_min":0,"x_max":0,"o":""},"_":{"ha":546,"x_min":0,"x_max":0,"o":""},"`":{"ha":354,"x_min":0,"x_max":0,"o":""},"a":{"ha":928,"x_min":37,"x_max":890,"o":"m 393 130 q 330 23 372 66 q 212 -20 288 -22 q 107 19 152 -17 q 47 113 62 56 q 48 218 37 165 q 76 322 59 271 q 87 359 82 341 q 152 578 119 469 q 186 686 167 632 q 235 787 205 739 q 311 871 266 836 q 413 916 357 906 q 574 877 500 926 q 686 761 644 831 q 754 613 728 690 q 835 332 801 475 q 854 255 844 293 l 865 217 q 888 103 883 160 q 863 23 890 56 q 792 -22 835 -9 q 708 -24 750 -35 q 592 60 635 -3 q 560 124 572 90 q 542 124 551 123 q 393 130 467 125 m 515 310 q 492 414 504 362 q 477 437 486 437 q 461 426 469 438 q 450 398 453 414 q 433 308 441 357 q 515 310 474 310 "},"b":{"ha":840,"x_min":38,"x_max":803,"o":"m 427 212 q 369 247 386 216 q 360 312 351 278 q 407 359 369 345 q 475 350 450 371 q 505 296 500 330 q 490 236 509 262 q 427 212 471 210 m 502 635 q 464 588 493 602 q 405 583 435 574 q 366 627 376 591 q 380 679 358 661 q 433 698 401 696 q 486 684 464 699 q 502 635 508 668 m 711 498 q 763 683 773 585 q 667 846 752 781 q 533 904 605 888 q 387 918 460 920 q 240 901 313 916 l 224 898 q 165 884 195 893 q 113 854 136 875 q 61 744 73 810 q 47 614 49 677 q 46 584 47 597 q 50 250 38 417 q 64 151 53 200 q 106 65 75 102 q 167 19 132 35 q 239 -3 201 4 l 251 -5 q 362 -25 307 -16 q 475 -33 418 -33 q 600 -9 541 -31 q 704 51 659 12 q 777 148 750 91 q 803 278 803 205 q 782 408 803 355 q 711 498 762 461 "},"c":{"ha":846,"x_min":37,"x_max":809,"o":"m 804 169 q 780 282 809 228 q 689 345 751 336 q 613 330 650 345 q 583 320 597 324 q 491 334 530 308 q 437 411 451 359 q 438 486 428 448 q 477 547 449 524 q 547 565 505 571 q 598 545 574 559 q 643 527 620 533 q 757 564 709 515 q 802 677 800 612 q 744 831 803 766 q 604 908 686 891 q 436 910 522 926 q 282 857 351 895 q 119 703 177 799 q 49 495 60 608 q 72 272 37 382 q 132 147 92 208 q 233 52 172 86 q 506 -22 361 -16 q 700 18 608 -24 q 802 150 782 61 q 804 169 804 159 l 804 169 "},"d":{"ha":861,"x_min":38,"x_max":836,"o":"m 813 551 q 727 750 791 662 q 569 886 664 838 q 390 929 482 928 q 208 899 297 930 q 97 787 132 869 q 52 607 62 705 q 41 432 42 509 q 41 417 41 425 q 50 239 38 334 q 104 73 61 144 q 213 -5 146 15 q 345 -25 279 -24 q 545 -1 449 -31 q 711 115 640 28 q 810 323 785 208 q 813 551 836 437 l 813 551 m 409 334 q 376 357 388 338 q 366 395 368 375 q 359 468 361 421 q 373 551 358 515 q 430 583 387 588 q 482 544 462 575 q 507 482 502 513 q 476 364 517 417 q 448 340 465 349 q 413 333 432 331 q 409 334 411 333 l 409 334 "},"e":{"ha":766,"x_min":37,"x_max":728,"o":"m 690 795 q 633 885 677 856 q 528 919 590 915 q 312 878 414 926 q 140 743 210 829 q 39 454 41 615 q 123 158 37 292 q 348 -4 205 40 q 629 -1 490 -49 q 707 78 686 23 q 704 189 728 134 q 645 253 684 230 q 559 275 605 277 q 528 271 543 273 q 490 267 509 267 q 455 273 472 267 q 431 295 439 280 q 426 321 424 307 q 437 344 428 334 q 476 358 452 357 q 521 359 499 360 q 533 358 527 358 q 597 372 568 355 q 624 417 619 389 q 624 473 629 445 q 602 541 620 510 q 543 578 581 574 q 515 574 529 577 q 485 572 499 572 q 463 583 471 572 q 462 614 452 597 q 490 635 471 630 q 549 628 519 639 q 560 625 555 627 q 615 618 587 617 q 666 636 644 620 q 697 699 694 661 q 693 776 701 738 q 690 795 692 785 l 690 795 "},"f":{"ha":783,"x_min":37,"x_max":746,"o":"m 625 427 q 628 435 627 431 q 634 485 635 459 q 620 532 633 511 q 553 576 595 566 q 484 585 519 585 q 473 586 478 586 q 431 596 450 586 q 417 612 422 602 q 416 633 413 622 q 432 647 421 643 q 454 653 443 652 q 553 655 504 659 l 576 652 q 639 652 607 646 q 736 746 712 674 q 735 816 746 781 q 697 875 725 851 q 641 902 672 895 q 576 909 609 909 q 500 913 538 911 q 363 915 431 920 q 230 872 296 910 q 105 736 149 821 q 50 554 60 650 q 55 312 37 433 q 62 258 59 285 q 73 175 65 216 q 104 96 81 134 q 216 -1 145 29 q 361 -3 286 -31 q 452 90 427 23 q 449 205 466 146 q 439 241 445 223 q 422 319 428 279 q 422 339 420 329 q 432 357 425 350 q 444 361 437 360 q 457 362 450 362 l 486 362 q 569 369 531 359 q 625 427 608 379 "},"g":{"ha":903,"x_min":37,"x_max":876,"o":"m 847 174 q 856 379 876 275 q 801 499 844 444 q 688 569 758 554 q 594 555 642 576 q 525 494 547 534 q 536 405 504 454 q 553 385 544 395 q 574 359 565 373 q 582 331 582 347 q 570 307 582 316 q 551 300 562 300 q 530 302 541 300 q 430 354 473 314 q 372 448 387 394 q 385 556 357 503 q 434 607 404 588 q 500 633 464 625 q 572 640 536 640 q 630 645 601 640 q 686 665 659 649 q 743 738 728 691 q 740 829 758 784 q 682 895 721 870 q 597 928 644 920 q 333 905 461 951 q 127 748 204 859 q 39 445 37 611 q 143 149 41 279 q 298 28 208 71 q 491 -20 388 -15 q 677 -1 590 -27 q 819 113 765 26 q 847 174 837 142 l 847 174 "},"h":{"ha":932,"x_min":37,"x_max":895,"o":"m 299 -3 q 361 42 338 11 q 396 111 385 73 q 408 191 407 149 q 425 280 410 238 q 480 317 446 323 q 524 265 515 311 q 530 195 528 230 q 542 95 529 142 q 609 11 555 47 q 705 -19 651 -16 q 800 7 758 -23 q 867 127 853 53 q 881 273 881 201 q 882 311 881 293 q 857 758 895 536 q 820 852 848 812 q 732 901 792 892 q 635 887 682 906 q 558 829 587 869 q 536 767 536 798 q 543 705 536 736 q 549 648 549 676 q 535 590 550 619 q 472 550 511 551 q 410 589 433 549 q 398 641 397 613 q 405 699 399 669 q 409 779 413 741 q 350 880 397 844 q 233 908 302 916 q 126 851 161 897 q 80 743 92 805 q 65 619 68 680 q 61 574 63 595 q 72 158 37 366 q 113 64 81 107 q 192 1 144 22 q 295 -4 239 -19 l 299 -3 "},"i":{"ha":398,"x_min":37,"x_max":361,"o":"m 40 410 q 42 319 41 365 q 46 164 45 242 q 70 56 46 107 q 140 -21 94 5 q 247 -30 192 -47 q 332 41 302 -13 q 358 141 355 87 q 357 249 361 195 q 355 294 355 272 q 349 549 351 422 q 350 611 349 580 q 344 781 353 696 q 301 886 336 843 q 206 928 267 928 q 83 852 130 922 q 48 750 55 807 q 41 636 41 692 q 40 596 41 615 q 40 410 37 503 "},"j":{"ha":749,"x_min":37,"x_max":711,"o":"m 426 481 q 427 429 426 455 q 425 322 432 370 q 378 253 418 273 q 320 256 342 239 q 281 299 298 273 q 254 332 268 317 q 183 361 222 361 q 110 338 144 361 q 62 279 77 316 q 68 138 37 206 q 162 31 100 70 q 337 -25 242 -18 q 519 3 432 -31 q 636 91 595 33 q 693 220 677 148 q 710 369 709 292 q 709 503 711 436 q 708 647 706 575 q 706 760 711 701 q 670 865 701 819 q 543 936 623 933 q 432 886 471 933 q 400 770 393 839 q 408 707 404 739 q 426 481 424 595 "},"k":{"ha":892,"x_min":37,"x_max":855,"o":"m 783 242 q 673 338 735 298 q 632 400 637 366 q 643 470 628 435 q 680 534 659 505 q 728 593 703 565 q 797 686 768 636 q 821 780 821 730 q 786 868 821 830 q 722 903 759 895 q 650 901 685 911 q 567 850 600 886 q 514 769 534 814 q 507 753 511 762 q 484 702 498 729 q 450 657 469 675 q 404 644 430 640 q 378 666 386 648 q 365 713 367 688 q 365 764 363 738 q 359 841 367 804 q 313 901 351 877 q 215 913 265 926 q 127 869 164 901 q 69 780 86 834 q 47 673 52 726 q 44 449 37 562 q 67 224 51 336 q 90 125 73 176 q 137 34 106 74 q 222 -23 169 -6 q 332 -6 286 -39 q 391 85 378 26 q 393 122 393 100 q 398 173 394 148 q 416 210 401 198 q 444 215 432 221 q 465 195 456 209 q 480 167 474 180 l 483 161 q 555 47 511 100 q 627 -10 585 14 q 715 -36 669 -33 q 799 -10 760 -39 q 849 68 842 24 q 836 157 855 111 q 783 242 817 202 "},"l":{"ha":732,"x_min":37,"x_max":695,"o":"m 386 496 q 385 464 386 480 q 387 387 382 425 q 438 313 398 328 q 531 309 477 298 q 641 292 597 320 q 692 194 684 264 q 668 90 695 140 q 595 13 641 39 q 515 -13 557 -6 q 431 -20 473 -19 l 302 -15 q 226 -7 264 -15 q 155 20 188 1 q 83 117 103 57 q 55 237 62 176 q 43 448 42 342 q 41 528 42 488 q 42 664 37 590 q 72 802 46 738 q 159 901 98 867 q 262 919 215 928 q 351 861 310 909 q 381 785 376 827 q 387 700 387 743 q 386 598 386 647 l 386 496 "},"m":{"ha":1065,"x_min":37,"x_max":1027,"o":"m 507 33 l 507 33 q 420 110 441 41 q 418 118 420 114 q 404 166 415 142 q 364 186 392 190 q 338 163 346 181 q 328 125 331 144 q 295 46 319 82 q 232 -11 271 9 q 147 -23 191 -30 q 73 17 102 -16 q 48 130 37 67 q 103 345 68 239 q 137 463 121 404 q 158 549 148 506 q 231 797 185 675 q 283 866 247 836 q 361 903 319 895 q 427 892 404 909 q 466 847 449 874 q 507 800 482 821 q 570 790 545 770 q 617 845 596 810 q 643 881 630 865 q 671 904 656 897 q 760 897 722 924 q 822 824 797 870 q 860 739 846 777 q 1018 176 963 464 q 1026 114 1024 145 q 1016 55 1027 83 q 945 -10 995 9 q 845 -16 896 -29 q 730 77 770 10 q 718 102 724 86 q 688 157 705 131 q 647 178 671 182 q 618 155 629 173 q 601 114 608 137 q 584 74 593 93 q 558 46 574 56 q 507 33 532 32 "},"n":{"ha":914,"x_min":39,"x_max":877,"o":"m 68 718 q 84 761 75 739 q 169 865 113 827 q 294 887 224 903 q 398 814 354 869 q 477 696 442 759 q 520 631 499 661 q 535 612 526 621 q 555 604 544 604 q 582 626 574 605 q 586 669 589 648 l 582 704 q 576 806 574 755 q 594 871 579 840 q 638 919 610 903 q 711 927 673 937 q 781 892 749 918 q 847 771 833 845 q 863 622 861 697 q 867 570 865 595 q 868 298 877 434 q 867 277 867 288 q 854 158 864 219 q 815 50 844 96 q 749 -3 789 11 q 665 -6 709 -17 q 543 56 598 12 q 441 157 488 100 q 355 272 395 215 q 331 306 343 290 q 341 199 339 253 q 327 96 344 145 q 265 12 308 44 q 172 -7 222 -20 q 116 31 139 3 q 79 93 93 58 q 46 240 51 163 q 45 395 42 317 q 46 505 47 451 q 68 718 39 614 "},"o":{"ha":1006,"x_min":24,"x_max":968,"o":"m 913 626 q 727 837 848 759 q 465 914 606 914 q 204 814 325 914 q 63 594 102 724 q 61 334 24 465 q 181 140 96 224 q 378 15 266 56 q 608 -8 490 -26 q 810 83 722 12 q 937 262 898 155 q 961 447 968 353 q 913 626 953 541 l 913 626 m 610 431 q 546 359 602 383 q 452 364 489 339 q 405 433 416 389 q 414 517 394 477 q 490 566 434 556 q 587 528 554 572 q 610 431 620 484 l 610 431 "},"p":{"ha":861,"x_min":43,"x_max":818,"o":"m 529 521 q 527 517 529 519 q 484 489 510 498 q 437 492 460 480 q 422 513 426 500 q 416 539 418 527 q 412 591 413 565 q 412 600 413 595 q 413 620 412 609 q 418 637 414 630 q 436 649 425 646 q 458 651 447 652 q 513 625 492 646 q 537 572 533 604 q 529 521 541 546 m 726 825 q 635 886 687 863 q 526 918 583 909 q 295 916 410 934 q 200 894 247 911 q 121 841 153 878 q 56 686 69 772 q 43 476 43 601 q 48 277 44 351 q 73 132 52 203 q 108 59 85 93 q 165 1 131 24 q 277 -25 223 -36 q 364 30 330 -14 q 398 136 398 73 q 400 184 397 160 q 414 229 403 208 q 465 263 431 256 q 529 270 498 270 q 675 308 606 274 q 783 408 745 341 q 812 492 806 448 q 815 581 818 536 q 793 711 813 648 q 726 825 774 774 "},"q":{"ha":979,"x_min":17,"x_max":942,"o":"m 888 623 q 706 835 825 756 q 449 914 587 914 q 194 812 312 914 q 56 590 94 721 q 54 327 17 458 q 171 130 88 215 q 364 3 254 45 q 589 -20 474 -38 q 616 -14 602 -18 q 689 -81 646 -55 q 747 -99 715 -96 q 807 -86 779 -101 q 858 -25 843 -64 q 866 53 872 14 q 839 125 859 92 q 911 254 886 182 q 935 440 942 346 q 888 623 927 535 l 888 623 m 473 568 q 570 533 535 574 q 602 438 604 492 q 520 448 562 458 q 449 393 479 438 q 430 353 436 373 q 384 428 394 380 q 394 516 373 475 q 473 568 416 558 l 473 568 "},"r":{"ha":873,"x_min":37,"x_max":836,"o":"m 440 536 q 408 524 427 526 q 378 532 389 522 q 368 554 369 542 q 368 558 368 556 q 363 605 363 577 q 379 646 363 633 q 410 649 393 654 q 439 633 426 644 q 459 611 453 622 q 464 572 469 592 q 440 536 459 551 m 819 180 q 755 282 799 239 q 730 302 743 293 q 699 328 713 314 q 677 361 685 342 q 674 408 669 384 q 692 454 680 432 q 721 494 705 475 q 747 533 735 513 q 782 656 779 587 q 753 781 784 726 q 669 867 720 833 q 558 916 618 901 q 317 911 438 942 q 104 779 172 878 q 39 533 37 680 q 50 344 41 439 q 54 283 52 313 q 56 241 56 262 q 64 152 58 196 q 90 67 70 107 q 131 8 106 34 q 254 -12 186 -35 q 346 77 317 14 q 365 207 365 127 q 374 298 366 287 q 395 307 383 307 q 418 302 408 308 q 450 269 438 290 q 494 164 478 221 q 536 63 510 109 q 618 -3 562 17 q 728 2 676 -20 q 808 72 781 24 q 819 180 836 119 "},"s":{"ha":696,"x_min":37,"x_max":659,"o":"m 492 525 q 471 541 484 532 q 418 586 443 560 q 406 637 394 611 q 444 654 425 664 q 481 625 464 645 q 505 606 494 612 q 581 601 541 587 q 640 652 621 616 q 650 729 657 689 q 618 802 643 769 q 454 912 553 885 q 254 899 355 940 q 138 804 182 867 q 86 665 94 741 q 102 540 79 597 q 168 434 126 483 q 256 340 210 385 q 286 309 271 324 q 306 284 298 298 q 311 256 314 271 q 284 231 305 237 q 243 233 263 226 q 210 252 225 241 q 171 271 191 264 q 98 262 133 281 q 50 205 63 242 q 47 132 37 169 q 82 65 57 95 q 188 -6 128 13 q 315 -26 248 -26 q 456 -12 387 -28 q 577 50 525 4 q 643 166 627 98 q 642 301 659 233 q 585 423 625 367 q 492 525 545 479 l 492 525 "},"t":{"ha":867,"x_min":37,"x_max":829,"o":"m 306 897 l 248 897 q 130 874 188 898 q 50 794 72 850 q 47 717 37 758 q 81 647 56 676 q 124 620 100 625 q 174 613 148 614 q 231 606 201 613 q 277 567 263 596 q 294 502 291 538 q 295 435 296 466 q 286 322 293 376 q 277 199 278 263 q 296 98 277 148 q 359 16 316 47 q 513 -16 440 -38 q 605 98 585 6 q 614 219 615 159 q 608 341 613 280 q 604 524 600 433 q 621 586 604 557 q 653 604 632 601 q 699 607 675 608 q 764 616 738 604 q 814 676 800 637 q 829 752 829 715 q 793 855 829 821 q 692 888 757 888 q 500 892 628 888 q 306 897 379 897 "},"u":{"ha":833,"x_min":37,"x_max":795,"o":"m 131 891 q 147 903 138 898 q 246 919 193 931 q 334 868 299 907 q 387 725 385 806 q 376 561 389 644 q 366 427 366 489 q 375 372 365 398 q 415 337 387 345 q 448 343 432 334 q 473 366 463 351 q 491 432 490 396 q 485 609 495 521 q 477 716 479 663 q 483 823 475 769 q 524 893 491 865 q 597 928 556 920 q 690 915 658 941 q 741 833 722 889 q 790 589 784 711 q 776 340 795 467 q 750 209 767 273 q 697 91 734 144 q 595 5 661 37 q 354 -14 481 -44 q 151 117 227 17 q 71 294 97 194 q 41 498 45 393 q 50 692 37 602 q 75 798 56 742 q 131 891 93 854 l 131 891 "},"v":{"ha":813,"x_min":37,"x_max":776,"o":"m 304 846 q 277 878 294 864 q 186 895 236 903 q 83 849 125 886 q 38 751 41 813 q 54 637 37 696 q 90 523 70 578 q 108 473 100 497 q 224 151 161 311 q 278 44 243 94 q 380 -22 317 -8 q 457 -12 420 -28 q 522 33 494 3 q 568 96 549 61 q 600 166 586 130 q 708 489 665 324 q 729 563 718 525 q 762 685 748 623 q 771 804 776 747 q 720 906 767 866 q 596 926 672 939 q 493 828 521 914 q 454 705 465 741 q 442 669 448 687 q 429 640 438 653 q 405 626 420 627 q 379 640 389 627 q 365 669 370 654 q 347 725 356 697 q 327 789 337 757 q 304 846 319 819 l 304 846 "},"w":{"ha":1065,"x_min":37,"x_max":1027,"o":"m 507 854 q 558 842 532 856 q 584 813 574 831 q 601 774 593 795 q 618 732 608 751 q 647 709 629 714 q 688 731 671 705 q 718 785 705 757 q 730 810 724 802 q 845 903 770 878 q 945 898 896 916 q 1016 833 995 879 q 1026 773 1027 804 q 1018 712 1024 742 q 860 148 963 424 q 822 64 846 110 q 760 -9 797 18 q 671 -16 722 -37 q 643 7 656 -9 q 617 42 630 23 q 570 98 596 78 q 507 88 545 117 q 466 40 482 66 q 427 -4 449 14 q 361 -16 404 -22 q 283 22 319 -7 q 231 90 247 51 q 158 338 185 212 q 137 425 148 382 q 103 542 121 484 q 48 758 68 648 q 73 870 37 821 q 147 911 102 904 q 232 898 191 918 q 295 842 271 878 q 328 763 319 806 q 338 725 331 743 q 364 701 346 707 q 404 722 392 698 q 418 769 415 745 q 420 778 420 774 q 507 854 441 846 l 507 854 "},"x":{"ha":922,"x_min":37,"x_max":885,"o":"m 827 233 q 720 404 766 315 q 711 518 691 461 q 772 624 730 574 q 844 768 827 691 q 833 865 859 819 q 739 915 803 907 q 622 897 675 923 q 590 876 604 888 q 513 783 543 835 q 452 684 481 734 l 452 684 q 452 686 452 685 q 329 836 399 777 q 242 884 291 866 q 141 893 193 903 q 61 835 84 878 q 51 747 37 792 q 100 667 66 703 q 175 597 135 631 q 271 418 283 472 q 208 283 260 365 q 138 170 171 227 q 134 159 136 164 q 102 90 113 126 q 112 19 91 54 q 214 -29 148 -22 q 326 -23 274 -37 q 408 31 377 -9 q 481 159 452 92 q 531 83 505 119 q 609 4 561 39 q 731 -31 662 -31 q 827 4 788 -27 q 877 77 867 35 q 870 157 885 117 q 827 233 855 197 "},"y":{"ha":822,"x_min":37,"x_max":794,"o":"m 440 335 q 450 307 450 323 q 441 279 450 292 q 389 252 420 255 q 329 255 359 249 q 271 264 300 259 q 213 273 242 268 q 189 277 201 275 q 114 281 150 288 q 55 230 72 267 q 37 154 37 193 q 66 83 43 115 q 124 30 90 51 q 270 -21 192 -9 q 419 -33 347 -37 q 563 3 491 -30 q 672 87 626 34 q 745 205 719 140 q 783 491 794 337 q 762 705 771 646 q 729 815 753 762 q 662 900 705 869 q 553 915 619 930 q 467 854 489 897 q 447 758 445 812 q 458 652 449 703 q 459 604 463 628 q 450 583 457 593 q 432 568 443 572 q 398 569 418 564 q 370 585 378 574 q 353 636 354 608 q 351 705 349 671 q 350 762 352 734 q 322 848 347 810 q 252 903 298 886 q 104 866 168 925 q 66 802 79 838 q 50 728 54 766 q 55 570 41 653 q 114 425 68 487 q 255 329 171 353 q 440 335 338 306 l 440 335 "},"z":{"ha":772,"x_min":37,"x_max":734,"o":"m 527 905 q 304 910 416 911 q 164 906 193 909 q 106 886 135 902 q 40 785 43 850 q 91 673 37 720 q 174 640 129 645 q 265 643 219 635 q 285 644 275 644 q 302 639 295 644 q 318 590 325 621 q 291 528 311 559 q 256 477 271 497 q 251 470 253 473 q 132 283 182 381 q 94 180 109 237 q 100 75 79 123 q 140 32 114 48 q 196 8 165 15 q 322 -6 257 -5 q 453 -7 388 -8 q 565 -6 511 -5 q 698 50 644 -7 q 719 170 734 100 q 648 272 703 241 q 611 279 632 279 q 566 275 589 278 q 507 272 535 270 q 464 296 479 273 q 460 336 453 315 q 499 422 476 381 q 549 503 523 463 q 601 587 576 544 q 641 677 625 629 q 653 758 652 713 q 638 841 655 803 q 579 897 622 880 q 527 905 554 905 "},"{":{"ha":435,"x_min":0,"x_max":0,"o":""},"|":{"ha":197,"x_min":0,"x_max":0,"o":""},"}":{"ha":435,"x_min":0,"x_max":0,"o":""},"~":{"ha":794,"x_min":0,"x_max":0,"o":""},"¡":{"ha":303,"x_min":0,"x_max":0,"o":""},"¢":{"ha":608,"x_min":0,"x_max":0,"o":""},"£":{"ha":657,"x_min":0,"x_max":0,"o":""},"¤":{"ha":859,"x_min":0,"x_max":0,"o":""},"¥":{"ha":75,"x_min":0,"x_max":0,"o":""},"¦":{"ha":197,"x_min":0,"x_max":0,"o":""},"§":{"ha":75,"x_min":0,"x_max":0,"o":""},"¨":{"ha":585,"x_min":0,"x_max":0,"o":""},"©":{"ha":976,"x_min":0,"x_max":0,"o":""},"ª":{"ha":75,"x_min":0,"x_max":0,"o":""},"«":{"ha":670,"x_min":0,"x_max":0,"o":""},"¬":{"ha":75,"x_min":0,"x_max":0,"o":""},"®":{"ha":976,"x_min":0,"x_max":0,"o":""},"¯":{"ha":75,"x_min":0,"x_max":0,"o":""},"°":{"ha":402,"x_min":0,"x_max":0,"o":""},"±":{"ha":75,"x_min":0,"x_max":0,"o":""},"²":{"ha":444,"x_min":0,"x_max":0,"o":""},"³":{"ha":446,"x_min":0,"x_max":0,"o":""},"´":{"ha":353,"x_min":0,"x_max":0,"o":""},"µ":{"ha":75,"x_min":0,"x_max":0,"o":""},"¶":{"ha":75,"x_min":0,"x_max":0,"o":""},"·":{"ha":233,"x_min":0,"x_max":0,"o":""},"¸":{"ha":397,"x_min":0,"x_max":0,"o":""},"¹":{"ha":300,"x_min":0,"x_max":0,"o":""},"º":{"ha":559,"x_min":0,"x_max":0,"o":""},"»":{"ha":670,"x_min":0,"x_max":0,"o":""},"¼":{"ha":938,"x_min":0,"x_max":0,"o":""},"½":{"ha":905,"x_min":0,"x_max":0,"o":""},"¾":{"ha":1020,"x_min":0,"x_max":0,"o":""},"¿":{"ha":714,"x_min":0,"x_max":0,"o":""},"À":{"ha":920,"x_min":0,"x_max":0,"o":""},"Á":{"ha":920,"x_min":0,"x_max":0,"o":""},"Â":{"ha":920,"x_min":0,"x_max":0,"o":""},"Ã":{"ha":920,"x_min":0,"x_max":0,"o":""},"Ä":{"ha":920,"x_min":0,"x_max":0,"o":""},"Å":{"ha":920,"x_min":0,"x_max":0,"o":""},"Æ":{"ha":1228,"x_min":0,"x_max":0,"o":""},"Ç":{"ha":829,"x_min":0,"x_max":0,"o":""},"È":{"ha":789,"x_min":0,"x_max":0,"o":""},"É":{"ha":789,"x_min":0,"x_max":0,"o":""},"Ê":{"ha":789,"x_min":0,"x_max":0,"o":""},"Ë":{"ha":789,"x_min":0,"x_max":0,"o":""},"Ì":{"ha":431,"x_min":0,"x_max":0,"o":""},"Í":{"ha":431,"x_min":0,"x_max":0,"o":""},"Î":{"ha":431,"x_min":0,"x_max":0,"o":""},"Ï":{"ha":431,"x_min":0,"x_max":0,"o":""},"Ð":{"ha":909,"x_min":0,"x_max":0,"o":""},"Ñ":{"ha":922,"x_min":0,"x_max":0,"o":""},"Ò":{"ha":987,"x_min":0,"x_max":0,"o":""},"Ó":{"ha":987,"x_min":0,"x_max":0,"o":""},"Ô":{"ha":987,"x_min":0,"x_max":0,"o":""},"Õ":{"ha":987,"x_min":0,"x_max":0,"o":""},"Ö":{"ha":987,"x_min":0,"x_max":0,"o":""},"×":{"ha":547,"x_min":0,"x_max":0,"o":""},"Ø":{"ha":987,"x_min":37,"x_max":949,"o":"m 491 578 l 382 376 q 359 425 366 397 q 376 518 349 473 q 454 575 404 562 q 491 578 473 579 m 471 330 q 580 528 534 444 q 604 471 598 503 q 587 387 611 426 q 576 372 583 378 q 576 371 576 372 l 574 370 q 500 330 546 335 q 471 330 485 329 m 746 835 q 764 869 755 853 q 798 938 793 925 q 801 953 800 945 q 800 975 802 964 q 768 1006 790 1001 q 760 1008 764 1008 q 728 1000 743 1009 q 684 932 718 989 q 656 884 675 916 q 640 890 648 887 q 431 920 542 924 q 231 857 321 916 q 103 712 152 802 q 45 519 54 623 q 74 304 37 408 q 224 82 124 167 q 162 -37 165 -27 q 159 -52 159 -45 q 159 -68 159 -60 q 181 -96 163 -85 q 199 -102 190 -100 q 214 -100 206 -102 q 239 -85 229 -94 q 303 28 243 -79 l 309 25 q 649 8 476 -58 q 781 91 721 37 q 915 330 880 186 q 906 614 949 474 q 803 786 872 715 q 746 835 776 813 "},"Ù":{"ha":781,"x_min":0,"x_max":0,"o":""},"Ú":{"ha":781,"x_min":0,"x_max":0,"o":""},"Û":{"ha":781,"x_min":0,"x_max":0,"o":""},"Ü":{"ha":781,"x_min":0,"x_max":0,"o":""},"Ý":{"ha":821,"x_min":0,"x_max":0,"o":""},"Þ":{"ha":825,"x_min":37,"x_max":788,"o":"m 753 596 q 661 712 719 667 q 537 774 604 757 q 368 769 460 797 q 367 772 368 770 q 367 777 367 774 q 367 782 367 780 q 366 785 366 785 q 326 871 354 840 q 247 916 298 903 q 115 885 174 934 q 49 770 60 833 q 40 604 37 707 q 41 567 41 586 q 58 241 41 404 q 60 232 59 237 q 84 93 66 146 q 158 0 101 39 q 242 -25 198 -26 q 322 8 286 -24 q 373 90 359 42 q 389 188 388 137 q 431 189 410 189 q 475 191 453 190 q 617 209 547 191 q 736 288 687 227 q 785 436 782 351 q 753 596 788 522 l 753 596 m 481 441 q 441 405 468 415 q 389 409 414 396 q 358 451 364 424 q 362 486 355 469 q 410 522 377 515 q 456 522 431 526 q 488 494 481 517 q 481 441 492 467 l 481 441 "},"ß":{"ha":955,"x_min":38,"x_max":912,"o":"m 860 485 q 840 512 851 499 q 830 524 836 518 q 795 571 810 546 q 782 625 780 595 q 788 659 783 642 q 791 669 790 664 q 765 807 810 745 q 634 900 713 873 q 235 892 433 962 q 115 800 157 863 q 58 656 73 736 q 43 490 41 574 q 42 385 44 438 q 42 240 38 312 q 75 102 47 169 q 143 19 99 52 q 239 -16 187 -14 q 338 20 291 -19 q 401 132 386 66 q 416 262 416 199 q 416 368 418 315 q 415 444 415 406 q 415 481 415 463 q 420 610 414 547 q 433 673 422 642 q 473 720 444 705 q 522 711 503 732 q 541 661 542 690 q 517 600 535 629 q 512 591 515 596 q 511 444 475 518 q 516 434 514 439 q 537 382 528 408 q 541 329 545 356 q 522 284 536 304 q 489 246 507 264 q 445 189 463 220 q 434 101 425 147 q 478 21 444 54 q 613 -29 541 -35 q 749 22 685 -22 q 852 127 814 67 q 908 307 904 211 q 860 485 912 402 l 860 485 "},"à":{"ha":928,"x_min":0,"x_max":0,"o":""},"á":{"ha":928,"x_min":0,"x_max":0,"o":""},"â":{"ha":928,"x_min":0,"x_max":0,"o":""},"ã":{"ha":928,"x_min":0,"x_max":0,"o":""},"ä":{"ha":928,"x_min":0,"x_max":0,"o":""},"å":{"ha":928,"x_min":0,"x_max":0,"o":""},"æ":{"ha":1219,"x_min":0,"x_max":0,"o":""},"ç":{"ha":846,"x_min":0,"x_max":0,"o":""},"è":{"ha":766,"x_min":0,"x_max":0,"o":""},"é":{"ha":766,"x_min":0,"x_max":0,"o":""},"ê":{"ha":766,"x_min":0,"x_max":0,"o":""},"ë":{"ha":766,"x_min":0,"x_max":0,"o":""},"ì":{"ha":398,"x_min":0,"x_max":0,"o":""},"í":{"ha":398,"x_min":0,"x_max":0,"o":""},"î":{"ha":398,"x_min":0,"x_max":0,"o":""},"ï":{"ha":398,"x_min":0,"x_max":0,"o":""},"ð":{"ha":922,"x_min":0,"x_max":0,"o":""},"ñ":{"ha":914,"x_min":0,"x_max":0,"o":""},"ò":{"ha":1006,"x_min":0,"x_max":0,"o":""},"ó":{"ha":1006,"x_min":0,"x_max":0,"o":""},"ô":{"ha":1006,"x_min":0,"x_max":0,"o":""},"õ":{"ha":1006,"x_min":0,"x_max":0,"o":""},"ö":{"ha":1019,"x_min":0,"x_max":0,"o":""},"÷":{"ha":710,"x_min":0,"x_max":0,"o":""},"ø":{"ha":1019,"x_min":37,"x_max":982,"o":"m 526 585 q 416 395 467 485 q 401 432 406 412 q 411 528 388 483 q 499 585 434 574 q 526 585 513 587 m 497 337 q 614 536 565 452 q 637 430 648 488 q 563 347 627 374 q 497 337 526 334 m 775 812 q 810 874 794 846 q 846 942 842 929 q 850 957 849 949 q 849 979 851 967 q 819 1011 840 1005 q 810 1013 814 1013 q 779 1005 793 1015 q 732 940 767 996 q 688 866 718 918 q 479 914 589 914 q 218 814 338 914 q 77 594 116 724 q 75 334 37 465 q 195 140 109 224 q 243 97 218 117 q 181 -14 185 -4 q 178 -28 179 -21 q 178 -44 177 -36 q 199 -74 181 -62 q 216 -79 208 -78 q 232 -78 224 -80 q 256 -64 246 -73 q 323 45 261 -59 q 392 16 356 28 q 621 -8 504 -26 q 824 83 736 12 q 951 262 911 155 q 974 447 982 353 q 926 626 966 541 q 775 812 871 739 "},"ù":{"ha":833,"x_min":0,"x_max":0,"o":""},"ú":{"ha":833,"x_min":0,"x_max":0,"o":""},"û":{"ha":833,"x_min":0,"x_max":0,"o":""},"ü":{"ha":833,"x_min":0,"x_max":0,"o":""},"ý":{"ha":822,"x_min":0,"x_max":0,"o":""},"þ":{"ha":846,"x_min":37,"x_max":808,"o":"m 768 642 q 672 748 728 712 q 534 789 616 785 q 377 774 455 791 q 346 766 362 771 q 345 771 345 768 q 344 782 345 777 q 301 887 336 844 q 206 929 267 930 q 83 853 130 923 q 48 751 55 808 q 41 637 41 694 q 40 597 41 616 q 40 411 37 504 q 42 321 41 366 q 46 165 45 243 q 70 57 46 108 q 140 -20 94 6 q 247 -29 192 -46 q 332 41 302 -12 q 359 178 362 105 q 383 180 359 178 q 437 184 406 182 q 492 189 467 186 q 523 192 517 191 q 658 237 595 201 q 760 334 721 273 q 806 487 804 404 q 768 642 808 570 l 768 642 m 489 460 q 445 433 473 440 q 395 436 418 426 q 373 478 373 446 q 412 536 376 518 q 449 539 430 543 q 481 522 468 535 q 489 460 509 485 l 489 460 "},"ÿ":{"ha":761,"x_min":0,"x_max":0,"o":""},"ı":{"ha":398,"x_min":0,"x_max":0,"o":""},"Ą":{"ha":920,"x_min":0,"x_max":0,"o":""},"ą":{"ha":928,"x_min":0,"x_max":0,"o":""},"Ć":{"ha":829,"x_min":0,"x_max":0,"o":""},"ć":{"ha":846,"x_min":0,"x_max":0,"o":""},"Ę":{"ha":789,"x_min":0,"x_max":0,"o":""},"ę":{"ha":766,"x_min":0,"x_max":0,"o":""},"Ł":{"ha":747,"x_min":0,"x_max":0,"o":""},"ł":{"ha":773,"x_min":0,"x_max":0,"o":""},"Ń":{"ha":922,"x_min":0,"x_max":0,"o":""},"ń":{"ha":914,"x_min":0,"x_max":0,"o":""},"Œ":{"ha":1272,"x_min":0,"x_max":0,"o":""},"œ":{"ha":1322,"x_min":0,"x_max":0,"o":""},"Ż":{"ha":805,"x_min":0,"x_max":0,"o":""},"ż":{"ha":772,"x_min":0,"x_max":0,"o":""},"Ź":{"ha":805,"x_min":0,"x_max":0,"o":""},"ź":{"ha":772,"x_min":0,"x_max":0,"o":""},"Ň":{"ha":922,"x_min":0,"x_max":0,"o":""},"ň":{"ha":923,"x_min":0,"x_max":0,"o":""},"Ř":{"ha":880,"x_min":0,"x_max":0,"o":""},"ř":{"ha":873,"x_min":0,"x_max":0,"o":""},"Š":{"ha":700,"x_min":0,"x_max":0,"o":""},"š":{"ha":696,"x_min":0,"x_max":0,"o":""},"Ť":{"ha":862,"x_min":0,"x_max":0,"o":""},"ť":{"ha":867,"x_min":0,"x_max":0,"o":""},"Ś":{"ha":700,"x_min":0,"x_max":0,"o":""},"ś":{"ha":696,"x_min":0,"x_max":0,"o":""},"Ž":{"ha":805,"x_min":0,"x_max":0,"o":""},"ž":{"ha":772,"x_min":0,"x_max":0,"o":""},"–":{"ha":876,"x_min":0,"x_max":0,"o":""},"—":{"ha":1330,"x_min":0,"x_max":0,"o":""},"‘":{"ha":292,"x_min":0,"x_max":0,"o":""},"’":{"ha":292,"x_min":0,"x_max":0,"o":""},"‚":{"ha":290,"x_min":0,"x_max":0,"o":""},"“":{"ha":539,"x_min":0,"x_max":0,"o":""},"”":{"ha":539,"x_min":0,"x_max":0,"o":""},"„":{"ha":539,"x_min":0,"x_max":0,"o":""},"†":{"ha":522,"x_min":0,"x_max":0,"o":""},"‡":{"ha":522,"x_min":0,"x_max":0,"o":""},"•":{"ha":416,"x_min":0,"x_max":0,"o":""},"…":{"ha":966,"x_min":0,"x_max":0,"o":""},"‹":{"ha":391,"x_min":0,"x_max":0,"o":""},"›":{"ha":391,"x_min":0,"x_max":0,"o":""},"⁄":{"ha":800,"x_min":0,"x_max":0,"o":""},"₣":{"ha":700,"x_min":0,"x_max":0,"o":""},"₤":{"ha":657,"x_min":0,"x_max":0,"o":""},"€":{"ha":740,"x_min":0,"x_max":0,"o":""},"™":{"ha":1331,"x_min":0,"x_max":0,"o":""},"≤":{"ha":637,"x_min":0,"x_max":0,"o":""},"≥":{"ha":637,"x_min":0,"x_max":0,"o":""},"ˆ":{"ha":509,"x_min":0,"x_max":0,"o":""},"ˇ":{"ha":509,"x_min":0,"x_max":0,"o":""},"ˉ":{"ha":562,"x_min":0,"x_max":0,"o":""},"˘":{"ha":515,"x_min":0,"x_max":0,"o":""},"˙":{"ha":275,"x_min":0,"x_max":0,"o":""},"˚":{"ha":371,"x_min":0,"x_max":0,"o":""},"˛":{"ha":376,"x_min":0,"x_max":0,"o":""},"˜":{"ha":550,"x_min":0,"x_max":0,"o":""},"˝":{"ha":547,"x_min":0,"x_max":0,"o":""},"̦":{"ha":304,"x_min":0,"x_max":0,"o":""},"̀":{"ha":354,"x_min":0,"x_max":0,"o":""},"́":{"ha":353,"x_min":0,"x_max":0,"o":""},"ā":{"ha":928,"x_min":0,"x_max":0,"o":""},"Ă":{"ha":920,"x_min":0,"x_max":0,"o":""},"ă":{"ha":928,"x_min":0,"x_max":0,"o":""},"Ĉ":{"ha":829,"x_min":0,"x_max":0,"o":""},"ĉ":{"ha":846,"x_min":0,"x_max":0,"o":""},"Ċ":{"ha":829,"x_min":0,"x_max":0,"o":""},"ċ":{"ha":846,"x_min":0,"x_max":0,"o":""},"Č":{"ha":829,"x_min":0,"x_max":0,"o":""},"č":{"ha":846,"x_min":0,"x_max":0,"o":""},"Ď":{"ha":909,"x_min":0,"x_max":0,"o":""},"ď":{"ha":923,"x_min":0,"x_max":0,"o":""},"Đ":{"ha":909,"x_min":0,"x_max":0,"o":""},"đ":{"ha":922,"x_min":0,"x_max":0,"o":""},"Ē":{"ha":789,"x_min":0,"x_max":0,"o":""},"ē":{"ha":766,"x_min":0,"x_max":0,"o":""},"Ĕ":{"ha":789,"x_min":0,"x_max":0,"o":""},"ĕ":{"ha":766,"x_min":0,"x_max":0,"o":""},"Ė":{"ha":789,"x_min":0,"x_max":0,"o":""},"ė":{"ha":766,"x_min":0,"x_max":0,"o":""},"Ě":{"ha":789,"x_min":0,"x_max":0,"o":""},"ě":{"ha":766,"x_min":0,"x_max":0,"o":""},"Ĝ":{"ha":941,"x_min":0,"x_max":0,"o":""},"ĝ":{"ha":903,"x_min":0,"x_max":0,"o":""},"Ğ":{"ha":941,"x_min":0,"x_max":0,"o":""},"ğ":{"ha":903,"x_min":0,"x_max":0,"o":""},"Ġ":{"ha":941,"x_min":0,"x_max":0,"o":""},"ġ":{"ha":903,"x_min":0,"x_max":0,"o":""},"Ģ":{"ha":941,"x_min":0,"x_max":0,"o":""},"ģ":{"ha":903,"x_min":0,"x_max":0,"o":""},"Ĥ":{"ha":876,"x_min":0,"x_max":0,"o":""},"ĥ":{"ha":932,"x_min":0,"x_max":0,"o":""},"Ħ":{"ha":876,"x_min":0,"x_max":0,"o":""},"ħ":{"ha":932,"x_min":0,"x_max":0,"o":""},"Ĩ":{"ha":431,"x_min":0,"x_max":0,"o":""},"ĩ":{"ha":398,"x_min":0,"x_max":0,"o":""},"Ī":{"ha":431,"x_min":0,"x_max":0,"o":""},"ī":{"ha":398,"x_min":0,"x_max":0,"o":""},"Ĭ":{"ha":431,"x_min":0,"x_max":0,"o":""},"ĭ":{"ha":398,"x_min":0,"x_max":0,"o":""},"Į":{"ha":431,"x_min":0,"x_max":0,"o":""},"į":{"ha":398,"x_min":0,"x_max":0,"o":""},"İ":{"ha":431,"x_min":0,"x_max":0,"o":""},"Ĳ":{"ha":1125,"x_min":0,"x_max":0,"o":""},"ĳ":{"ha":1099,"x_min":0,"x_max":0,"o":""},"Ĵ":{"ha":745,"x_min":0,"x_max":0,"o":""},"ĵ":{"ha":745,"x_min":0,"x_max":0,"o":""},"Ķ":{"ha":911,"x_min":0,"x_max":0,"o":""},"ķ":{"ha":892,"x_min":0,"x_max":0,"o":""},"ĸ":{"ha":892,"x_min":0,"x_max":0,"o":""},"Ĺ":{"ha":720,"x_min":0,"x_max":0,"o":""},"ĺ":{"ha":732,"x_min":0,"x_max":0,"o":""},"Ļ":{"ha":720,"x_min":0,"x_max":0,"o":""},"ļ":{"ha":732,"x_min":0,"x_max":0,"o":""},"Ľ":{"ha":747,"x_min":0,"x_max":0,"o":""},"ľ":{"ha":773,"x_min":0,"x_max":0,"o":""},"Ŀ":{"ha":747,"x_min":0,"x_max":0,"o":""},"ŀ":{"ha":695,"x_min":0,"x_max":0,"o":""},"Ņ":{"ha":922,"x_min":0,"x_max":0,"o":""},"ņ":{"ha":914,"x_min":0,"x_max":0,"o":""},"Ŋ":{"ha":907,"x_min":0,"x_max":0,"o":""},"ŋ":{"ha":906,"x_min":0,"x_max":0,"o":""},"Ō":{"ha":987,"x_min":0,"x_max":0,"o":""},"ō":{"ha":1006,"x_min":0,"x_max":0,"o":""},"Ŏ":{"ha":987,"x_min":0,"x_max":0,"o":""},"ŏ":{"ha":1019,"x_min":0,"x_max":0,"o":""},"Ő":{"ha":987,"x_min":0,"x_max":0,"o":""},"ő":{"ha":1006,"x_min":0,"x_max":0,"o":""},"Ŕ":{"ha":880,"x_min":0,"x_max":0,"o":""},"ŕ":{"ha":873,"x_min":0,"x_max":0,"o":""},"Ŗ":{"ha":880,"x_min":0,"x_max":0,"o":""},"ŗ":{"ha":873,"x_min":0,"x_max":0,"o":""},"Ŝ":{"ha":700,"x_min":0,"x_max":0,"o":""},"ŝ":{"ha":696,"x_min":0,"x_max":0,"o":""},"Ş":{"ha":700,"x_min":0,"x_max":0,"o":""},"ş":{"ha":696,"x_min":0,"x_max":0,"o":""},"Ţ":{"ha":862,"x_min":0,"x_max":0,"o":""},"ţ":{"ha":867,"x_min":0,"x_max":0,"o":""},"Ŧ":{"ha":862,"x_min":0,"x_max":0,"o":""},"ŧ":{"ha":867,"x_min":0,"x_max":0,"o":""},"Ũ":{"ha":781,"x_min":0,"x_max":0,"o":""},"ũ":{"ha":833,"x_min":0,"x_max":0,"o":""},"Ū":{"ha":781,"x_min":0,"x_max":0,"o":""},"ū":{"ha":833,"x_min":0,"x_max":0,"o":""},"Ŭ":{"ha":781,"x_min":0,"x_max":0,"o":""},"ŭ":{"ha":833,"x_min":0,"x_max":0,"o":""},"Ů":{"ha":781,"x_min":0,"x_max":0,"o":""},"ů":{"ha":833,"x_min":0,"x_max":0,"o":""},"Ű":{"ha":781,"x_min":0,"x_max":0,"o":""},"ű":{"ha":833,"x_min":0,"x_max":0,"o":""},"Ų":{"ha":781,"x_min":0,"x_max":0,"o":""},"ų":{"ha":833,"x_min":0,"x_max":0,"o":""},"Ŵ":{"ha":1041,"x_min":0,"x_max":0,"o":""},"ŵ":{"ha":1065,"x_min":0,"x_max":0,"o":""},"Ŷ":{"ha":821,"x_min":0,"x_max":0,"o":""},"ŷ":{"ha":822,"x_min":0,"x_max":0,"o":""},"Ÿ":{"ha":821,"x_min":0,"x_max":0,"o":""}}}
